<svg id="Layer_2" data-name="Layer 2" xmlns="http://www.w3.org/2000/svg" viewBox="0 0 2745.88 1906.67"><defs><style>.cls-1{fill:#352525;}.cls-2{fill:#4c3434;}.cls-3{fill:#e5b64e;}.cls-4{fill:#c99e47;}.cls-5{fill:#b77158;}.cls-17,.cls-27,.cls-6{fill:#fff;}.cls-6{opacity:0.25;}.cls-7{fill:#84321f;}.cls-8{fill:#aa4724;}.cls-9{fill:#993e22;}.cls-10{fill:#4f5e40;}.cls-11{fill:#3d4731;}.cls-12{fill:#cca079;}.cls-13{fill:#9b785d;}.cls-14{fill:#5b3e3e;}.cls-15{fill:#c69775;}.cls-16{fill:#ad8468;}.cls-17{opacity:0.1;}.cls-18{fill:#f7e4bc;}.cls-19{fill:#d1c0a1;}.cls-20{fill:#6f53ad;}.cls-21{fill:#5e4a96;}.cls-22{fill:#788c61;}.cls-23{fill:#dd5a31;}.cls-24{fill:#e8e89c;}.cls-25{fill:#cecc8d;}.cls-26{fill:#afac79;}.cls-27{opacity:0.28;}.cls-28{fill:#d8a64e;}.cls-29{fill:#a8803f;}.cls-30{fill:#7f624e;}</style></defs><polygon class="cls-1" points="1283.21 0 1240.45 59.28 1241.26 111.78 1283.66 135.2 1283.21 0"/><rect class="cls-2" x="1283.21" width="18.44" height="594.66"/><path class="cls-3" d="M1376.46,591.17h-127v-487s21.54-17,63.52-17c46.47,0,63.52,17,63.52,17Z" transform="translate(-92.81 -16.24)"/><path class="cls-4" d="M1312.5,87.15a147.45,147.45,0,0,0-15.69.83c33.66,3.4,46.49,16.14,46.49,16.14V591.17H1376v-487S1359,87.15,1312.5,87.15Z" transform="translate(-92.81 -16.24)"/><path class="cls-5" d="M1359.35,476.92a60.92,60.92,0,0,0-.85-15.37c-20.89-1.09-90.64-.26-90.64-.26s-1.94,2.2,0,17.36C1276.46,472.6,1359.72,471.83,1359.35,476.92Z" transform="translate(-92.81 -16.24)"/><path class="cls-5" d="M1360.82,500.88a60.92,60.92,0,0,0-.85-15.37c-20.89-1.09-90.64-.26-90.64-.26s-1.94,2.2,0,17.36C1277.93,496.56,1361.19,495.79,1360.82,500.88Z" transform="translate(-92.81 -16.24)"/><path class="cls-5" d="M1274.22,576.32c26.88-3.38,54.88-6.65,80.49,2.18q0-31.29,0-62.59a4.09,4.09,0,0,0-.33-2,3.84,3.84,0,0,0-1.74-1.43c-7.43-3.79-16.12-3.93-24.46-3.85q-14.37.15-28.73.85c-8.46.42-19.39-.46-27.33,2.23C1272.82,517.18,1276.3,576.06,1274.22,576.32Z" transform="translate(-92.81 -16.24)"/><path class="cls-6" d="M1266.11,111.39c-4.24,10.38-2.11,22.11-.58,33.22,6.2,45.11,1.31,91,5.21,136.4.36,4.23,2,9.68,6.3,9.68,4.58,0,6-6.15,6-10.73q-.23-65.65,4.41-131.21c.58-8.14,1.69-17.25,8.07-22.34,5.62-4.5,15.16-6,16.13-13.13,1.11-8.15-12.69-14.84-19.45-15.91C1281.72,95.72,1270.14,101.5,1266.11,111.39Z" transform="translate(-92.81 -16.24)"/><path class="cls-6" d="M1272,309.65c-3.63,6.72-2,14.93-.6,22.45a220.14,220.14,0,0,1,2.88,56.21c-.24,3.12-.54,6.31.34,9.31s3.28,5.78,6.39,6.09,6.2-2.09,7.57-5,1.48-6.26,1.55-9.49q.67-30,.08-59.93c-.09-4.51-.21-9.09-1.59-13.39C1286.4,309,1277.31,299.76,1272,309.65Z" transform="translate(-92.81 -16.24)"/><path class="cls-7" d="M1481.47,147.4,1456.1,297.33s80.64,313.57,84.16,313.57,118.61-3.52,118.61-3.52Z" transform="translate(-92.81 -16.24)"/><path class="cls-8" d="M1695.42,593.5l-83.84,23.24L1481.47,147.4s9.68-20.3,37.38-28c30.67-8.5,46.45,4.73,46.45,4.73Z" transform="translate(-92.81 -16.24)"/><path class="cls-9" d="M1518.56,119.5a70.43,70.43,0,0,0-10.13,3.67c23.12-2.88,35,7,35,7l130.12,469.35,21.59-6L1565,124.23S1549.22,111,1518.56,119.5Z" transform="translate(-92.81 -16.24)"/><path class="cls-10" d="M1787.92,612.72,1704.08,636,1574,166.62s9.68-20.3,37.39-28c30.66-8.5,46.45,4.73,46.45,4.73Z" transform="translate(-92.81 -16.24)"/><path class="cls-11" d="M1611.06,138.72a70.57,70.57,0,0,0-10.14,3.67c23.13-2.88,35,7.05,35,7.05L1766,618.79l21.6-6L1657.51,143.45S1641.72,130.22,1611.06,138.72Z" transform="translate(-92.81 -16.24)"/><polygon class="cls-7" points="226.78 216.92 235.86 311.1 165.25 581.04 91.63 581.04 214.53 215.37 226.78 216.92"/><path class="cls-8" d="M205,614.37l-66.58-20L253,213.13s15.29-9.88,37.29-3.27c24.35,7.32,29.29,23.3,29.29,23.3Z" transform="translate(-92.81 -16.24)"/><path class="cls-9" d="M290.3,209.77a53.15,53.15,0,0,0-10.92-2.09c16,7.95,19.62,19.5,19.62,19.5L184.45,608.11,205,614.28,319.59,233.06S314.65,217.09,290.3,209.77Z" transform="translate(-92.81 -16.24)"/><rect class="cls-12" y="565.14" width="1719.8" height="89.03"/><polygon class="cls-13" points="859.9 654.16 0 654.16 114.29 744.04 859.9 744.04 1605.51 744.04 1719.8 654.16 859.9 654.16"/><path class="cls-14" d="M446.64,581.38h-127V183.29s21.55-13.87,63.53-13.87c46.47,0,63.52,13.87,63.52,13.87Z" transform="translate(-92.81 -16.24)"/><path class="cls-2" d="M383.12,169.42c-6.16,0-11.87.31-17.15.82,32.5,3,44.94,13,44.94,13V581.38h35.73V183.29S429.59,169.42,383.12,169.42Z" transform="translate(-92.81 -16.24)"/><path class="cls-15" d="M446.64,222.87c-21.33-8.49-45.47-9-68.56-7.16-18.66,1.49-37.42,4.42-55,11.06l-3.48,1.3v20.31a108.33,108.33,0,0,1,15-6.93,171.52,171.52,0,0,1,98.8-6.94,72.3,72.3,0,0,1,13.3,4.27Z" transform="translate(-92.81 -16.24)"/><path class="cls-16" d="M446.64,238.73V222.82c-11.31-4.51-23.42-6.75-35.73-7.61v15.7a166.94,166.94,0,0,1,22.43,3.55A70.81,70.81,0,0,1,446.64,238.73Z" transform="translate(-92.81 -16.24)"/><path class="cls-16" d="M446.5,272.56V256.65c-11.31-4.51-23.42-6.75-35.74-7.6v15.69a168.44,168.44,0,0,1,22.44,3.55A71.79,71.79,0,0,1,446.5,272.56Z" transform="translate(-92.81 -16.24)"/><path class="cls-15" d="M446.64,256.41c-21.33-8.49-45.47-9-68.56-7.16-18.66,1.49-37.42,4.42-55,11.06l-3.48,1.3v20.31a107.11,107.11,0,0,1,15-6.92,171.44,171.44,0,0,1,98.8-6.95,72.3,72.3,0,0,1,13.3,4.27Z" transform="translate(-92.81 -16.24)"/><path class="cls-16" d="M446.5,272.56V256.65c-11.31-4.51-23.42-6.75-35.74-7.6v15.69a168.44,168.44,0,0,1,22.44,3.55A71.79,71.79,0,0,1,446.5,272.56Z" transform="translate(-92.81 -16.24)"/><path class="cls-15" d="M429,559.74H343V478.88s25.33-4.51,43-4.59c20.28-.09,43,4.59,43,4.59Z" transform="translate(-92.81 -16.24)"/><path class="cls-16" d="M429,479.17s-8.11-1.67-19-3c.08.43.15.85.21,1.27,1.58,11-.14,22.26-3.87,32.64a88.49,88.49,0,0,1-8.31,17,70.69,70.69,0,0,1-11,13.8C375.4,552,359.27,557.07,343,558.5V560h86Z" transform="translate(-92.81 -16.24)"/><path class="cls-17" d="M336.77,196.63c-1.6,6.16.13,12.61,1.51,18.82,11.26,50.67-.81,103.67,4.45,155.31.26,2.55,1.51,5.88,4,5.51,2.12-.31,2.8-3,3-5.14,4.19-54.41-6.31-110.08,6.06-163.24,1.32-5.63,3.77-17.31-2.78-21S338.3,190.68,336.77,196.63Z" transform="translate(-92.81 -16.24)"/><path class="cls-17" d="M343.9,391q.78,18.14,1.57,36.28a17.66,17.66,0,0,0,1.23,6.9c1,2.13,3.16,3.9,5.51,3.72a3,3,0,0,0,1.94-.84,4.35,4.35,0,0,0,.71-3.2l-1.36-34.1c-.15-3.67,1.18-12.25-2.37-14.7C346.67,382,343.73,387,343.9,391Z" transform="translate(-92.81 -16.24)"/><path class="cls-14" d="M573.69,582.27H446.64V184.19s21.55-13.87,63.53-13.87c46.47,0,63.52,13.87,63.52,13.87Z" transform="translate(-92.81 -16.24)"/><path class="cls-2" d="M510.17,170.32c-6.17,0-11.88.3-17.15.81,32.5,3,44.94,13.06,44.94,13.06V582.27h35.73V184.19S556.64,170.32,510.17,170.32Z" transform="translate(-92.81 -16.24)"/><path class="cls-15" d="M573.69,223.77c-21.33-8.5-45.47-9-68.56-7.16-18.66,1.49-37.42,4.41-55,11L446.64,229v20.31a107.17,107.17,0,0,1,14.95-6.93,171.35,171.35,0,0,1,98.8-6.94,71.55,71.55,0,0,1,13.3,4.27Z" transform="translate(-92.81 -16.24)"/><path class="cls-16" d="M573.69,239.62V223.71c-11.31-4.5-23.42-6.75-35.73-7.6V231.8a168.55,168.55,0,0,1,22.43,3.55A72.3,72.3,0,0,1,573.69,239.62Z" transform="translate(-92.81 -16.24)"/><path class="cls-16" d="M573.55,273.46V257.55c-11.31-4.51-23.42-6.75-35.74-7.61v15.7a168.42,168.42,0,0,1,22.44,3.54A71.82,71.82,0,0,1,573.55,273.46Z" transform="translate(-92.81 -16.24)"/><path class="cls-15" d="M573.69,257.31c-21.33-8.49-45.47-9-68.56-7.16-18.66,1.49-37.42,4.41-55,11.06l-3.48,1.3v20.31a108.33,108.33,0,0,1,14.95-6.93,171.52,171.52,0,0,1,98.8-6.94,71.55,71.55,0,0,1,13.3,4.27Z" transform="translate(-92.81 -16.24)"/><path class="cls-16" d="M573.55,273.46V257.55c-11.31-4.51-23.42-6.75-35.74-7.61v15.7a168.42,168.42,0,0,1,22.44,3.54A71.82,71.82,0,0,1,573.55,273.46Z" transform="translate(-92.81 -16.24)"/><path class="cls-15" d="M556.09,560.63h-86V479.78s25.33-4.52,43-4.59c20.28-.09,43,4.59,43,4.59Z" transform="translate(-92.81 -16.24)"/><path class="cls-16" d="M556.09,480.06s-8.11-1.66-19-3c.08.43.15.85.21,1.27,1.58,11-.14,22.25-3.87,32.64a88.49,88.49,0,0,1-8.31,17,70,70,0,0,1-11,13.79c-11.73,11.13-27.86,16.17-44.13,17.61v1.52h86Z" transform="translate(-92.81 -16.24)"/><path class="cls-17" d="M463.82,197.53c-1.6,6.15.13,12.61,1.51,18.82,11.26,50.67-.81,103.66,4.45,155.31.26,2.54,1.51,5.88,4,5.5,2.12-.31,2.8-3,3-5.13,4.19-54.42-6.31-110.09,6.06-163.24,1.31-5.63,3.77-17.32-2.78-21S465.35,191.58,463.82,197.53Z" transform="translate(-92.81 -16.24)"/><path class="cls-17" d="M471,391.86l1.56,36.27a17.91,17.91,0,0,0,1.24,6.91c1,2.13,3.16,3.9,5.51,3.71a2.89,2.89,0,0,0,1.94-.83,4.35,4.35,0,0,0,.71-3.2q-.68-17.06-1.36-34.1c-.15-3.68,1.18-12.26-2.37-14.7C473.72,382.86,470.78,387.92,471,391.86Z" transform="translate(-92.81 -16.24)"/><path class="cls-14" d="M700.74,583.17h-127V185.09s21.55-13.87,63.53-13.87c46.47,0,63.52,13.87,63.52,13.87Z" transform="translate(-92.81 -16.24)"/><path class="cls-10" d="M1481.47,583.17h-87v-487s14.76-17,43.51-17c31.82,0,43.5,17,43.5,17Z" transform="translate(-92.81 -16.24)"/><path class="cls-11" d="M1437.66,79.15a69.48,69.48,0,0,0-10.74.83c23,3.4,31.83,16.14,31.83,16.14V583.17h22.41v-487S1469.48,79.15,1437.66,79.15Z" transform="translate(-92.81 -16.24)"/><path class="cls-2" d="M637.22,171.22c-6.17,0-11.88.3-17.15.81,32.5,3,44.94,13.06,44.94,13.06V583.17h35.73V185.09S683.69,171.22,637.22,171.22Z" transform="translate(-92.81 -16.24)"/><path class="cls-15" d="M700.74,224.66c-21.33-8.49-45.47-9-68.56-7.16-18.66,1.49-37.43,4.42-55,11.06l-3.48,1.3v20.31a107.11,107.11,0,0,1,14.95-6.92,171.44,171.44,0,0,1,98.8-6.95,72.54,72.54,0,0,1,13.3,4.27Z" transform="translate(-92.81 -16.24)"/><path class="cls-16" d="M700.74,240.52V224.61c-11.31-4.51-23.42-6.75-35.73-7.61v15.7a168.55,168.55,0,0,1,22.43,3.55A71.79,71.79,0,0,1,700.74,240.52Z" transform="translate(-92.81 -16.24)"/><path class="cls-16" d="M700.6,274.35V258.44c-11.31-4.5-23.42-6.75-35.74-7.6v15.69a168.44,168.44,0,0,1,22.44,3.55A72.54,72.54,0,0,1,700.6,274.35Z" transform="translate(-92.81 -16.24)"/><path class="cls-15" d="M700.74,258.21c-21.33-8.5-45.47-9-68.56-7.17-18.66,1.49-37.43,4.42-55,11.06l-3.48,1.31v20.31a106,106,0,0,1,14.95-6.93,171.35,171.35,0,0,1,98.8-6.94,71.79,71.79,0,0,1,13.3,4.27Z" transform="translate(-92.81 -16.24)"/><path class="cls-16" d="M700.6,274.35V258.44c-11.31-4.5-23.42-6.75-35.74-7.6v15.69a168.44,168.44,0,0,1,22.44,3.55A72.54,72.54,0,0,1,700.6,274.35Z" transform="translate(-92.81 -16.24)"/><path class="cls-15" d="M683.14,561.53h-86V480.67s25.33-4.51,43-4.59c20.28-.09,43,4.59,43,4.59Z" transform="translate(-92.81 -16.24)"/><path class="cls-16" d="M683.14,481s-8.11-1.67-19-3c.08.42.15.85.21,1.27,1.58,11-.14,22.25-3.87,32.64a88.13,88.13,0,0,1-8.31,17,69.79,69.79,0,0,1-11,13.8c-11.73,11.13-27.86,16.17-44.13,17.6v1.53h86Z" transform="translate(-92.81 -16.24)"/><path class="cls-17" d="M590.87,198.42c-1.6,6.16.13,12.62,1.51,18.82,11.26,50.68-.82,103.67,4.45,155.31.26,2.55,1.51,5.88,4,5.51,2.12-.31,2.79-3,3-5.14,4.19-54.41-6.31-110.08,6.06-163.23,1.31-5.64,3.76-17.32-2.78-21S592.4,192.48,590.87,198.42Z" transform="translate(-92.81 -16.24)"/><path class="cls-17" d="M598,392.76,599.56,429a17.94,17.94,0,0,0,1.24,6.91c1,2.12,3.16,3.89,5.51,3.71a2.9,2.9,0,0,0,1.94-.84,4.34,4.34,0,0,0,.71-3.2q-.68-17-1.36-34.1c-.15-3.67,1.18-12.25-2.37-14.69C600.77,383.76,597.83,388.82,598,392.76Z" transform="translate(-92.81 -16.24)"/><path class="cls-15" d="M283.64,232.43c9.92,1.09,20.91,3.76,26.15,12.25a96.67,96.67,0,0,0-3.11,10.94c-.56-5.17-6.34-7.82-11.26-9.47-7.85-2.64-15.75-5.29-23.95-6.34s-16.83-.44-24.25,3.22c1.2-9,2-11.35,11-11.61A181.92,181.92,0,0,1,283.64,232.43Z" transform="translate(-92.81 -16.24)"/><path class="cls-15" d="M221.37,553l3.21-11.12a2.72,2.72,0,0,0,0-2,2.65,2.65,0,0,0-1.29-1A134.13,134.13,0,0,0,163.18,526a1.94,1.94,0,0,0-2.33,1.89c-.93,3.94-2.23,8-2.62,12,3.22.69,8.58-1.34,12.36-1.22a87.3,87.3,0,0,1,17.76,2.59C191.27,542,221.81,551.48,221.37,553Z" transform="translate(-92.81 -16.24)"/><path class="cls-15" d="M228.27,531.45l3.21-11.13a2.7,2.7,0,0,0,0-2,2.62,2.62,0,0,0-1.29-1,134.13,134.13,0,0,0-60.15-12.9,2.57,2.57,0,0,0-1.62.4,2.67,2.67,0,0,0-.71,1.49c-.92,3.95-2.23,8-2.62,12,3.23.69,8.58-1.34,12.36-1.21a86.6,86.6,0,0,1,17.76,2.58C198.18,520.39,228.71,529.9,228.27,531.45Z" transform="translate(-92.81 -16.24)"/><path class="cls-10" d="M1187.92,582.27H821.47S792,569.8,792.28,518.1c.3-52,30.24-65.83,30.24-65.83h365.4v22H1149.6l.35,87.24h38Z" transform="translate(-92.81 -16.24)"/><path class="cls-18" d="M1181.64,561.53H830.06s-21.12-8.37-20.84-43.07c.28-34.89,20.84-44.17,20.84-44.17h351.58s-12.74,16.56-13.74,45.29C1167.19,540.4,1181.64,561.53,1181.64,561.53Z" transform="translate(-92.81 -16.24)"/><polygon class="cls-19" points="727.56 478.37 1079.23 478.37 1077.45 485.04 727.56 478.37"/><polygon class="cls-19" points="723.48 506.11 1075.16 506.11 1075.72 512.82 723.48 506.11"/><polygon class="cls-19" points="726.78 519.98 1077.28 519.98 1079.23 526.07 726.78 519.98"/><path class="cls-2" d="M825.89,528.87c-.52,11.48-.94,23.46,4.41,33.88-6.35.31-12.43-3-16.41-7.46s-6.16-10-7.85-15.59c-3.87-12.68-5.48-26.28-1.51-38.93,3.48-11.09,14.93-27.08,29.19-27.81C826,490.06,826.74,510.36,825.89,528.87Z" transform="translate(-92.81 -16.24)"/><path class="cls-8" d="M1177.7,453H930.59s-19.87-5.24-19.68-27,20.39-27.66,20.39-27.66h246.4v9.25h-25.84l.24,36.65h25.6Z" transform="translate(-92.81 -16.24)"/><path class="cls-18" d="M1173.47,444.29H936.38s-14.23-3.51-14-18.09,14-18.56,14-18.56h237.09a28.07,28.07,0,0,0-9.26,19C1163.72,435.42,1173.47,444.29,1173.47,444.29Z" transform="translate(-92.81 -16.24)"/><polygon class="cls-19" points="837.04 399.94 1074.19 399.94 1072.98 402.74 837.04 399.94"/><polygon class="cls-19" points="834.29 411.59 1071.44 411.59 1071.82 414.41 834.29 411.59"/><polygon class="cls-19" points="836.52 417.42 1072.87 417.42 1074.19 419.98 836.52 417.42"/><path class="cls-2" d="M933.58,430.57c-.35,4.82-.64,9.86,3,14.24a19,19,0,0,1-11.07-3.14,16.19,16.19,0,0,1-5.29-6.55c-2.61-5.32-3.7-11-1-16.35,2.35-4.66,10.07-11.38,19.69-11.69C933.65,414.27,934.15,422.8,933.58,430.57Z" transform="translate(-92.81 -16.24)"/><path class="cls-8" d="M1100.62,618.32c-.11-12.36,1.15-24.72.86-37.08-.49-20.61-1.54-42-19.06-58.65l-47.76-.38c9.48,4.77,13.79,15.91,15.67,26.35,3.28,18.23,1.63,36.93,2,55.45s2.93,37.83,13.48,53.06a91.62,91.62,0,0,1,12.79-33.72,49.41,49.41,0,0,0,29.32,31C1102.31,643.33,1100.73,630.69,1100.62,618.32Z" transform="translate(-92.81 -16.24)"/><ellipse class="cls-3" cx="1345.15" cy="155.93" rx="18.13" ry="52.03"/><path class="cls-4" d="M1545.74,193.53q-2.12,26.22-6.19,52.22-1.17,7.42-2.49,14.81a1.28,1.28,0,0,0,.87,1.54c7.32,2.5,12.9,8.1,17.63,14,5.58,7,10.59,14.43,15.81,21.68l9.52,13.22a1.25,1.25,0,0,0,2.28-1,190.93,190.93,0,0,1-1.88-54.37q.84-7.73,2.32-15.38a1.33,1.33,0,0,0-.57-1.41,94.94,94.94,0,0,1-28.14-35.47,93,93,0,0,1-4.6-12.28,1.25,1.25,0,0,0-2.41.67,96.5,96.5,0,0,0,33.89,49.24l-.58-1.41a193.69,193.69,0,0,0-2.61,55.48q.77,7.83,2.17,15.59l2.28-1-17.59-24.45c-4.77-6.62-9.42-13.58-15.63-19a33.8,33.8,0,0,0-11.23-6.64c.3.51.59,1,.88,1.54q4.68-26.1,7.38-52.49c.52-5.07,1-10.13,1.39-15.21.12-1.6-2.38-1.59-2.5,0Z" transform="translate(-92.81 -16.24)"/><path class="cls-4" d="M1559.36,253q-2.1,26.2-6.18,52.22-1.17,7.41-2.5,14.81a1.29,1.29,0,0,0,.88,1.53c7.31,2.51,12.9,8.1,17.63,14,5.58,7,10.59,14.44,15.8,21.68l9.52,13.22a1.26,1.26,0,0,0,2.29-1,191.24,191.24,0,0,1-1.89-54.36c.56-5.16,1.35-10.29,2.33-15.38a1.34,1.34,0,0,0-.57-1.42,94.89,94.89,0,0,1-28.15-35.47,93.93,93.93,0,0,1-4.6-12.28,1.25,1.25,0,0,0-2.41.67,96.7,96.7,0,0,0,33.89,49.24l-.57-1.41a193.35,193.35,0,0,0-2.61,55.48c.51,5.22,1.24,10.43,2.17,15.59l2.28-1q-8.79-12.22-17.6-24.44c-4.76-6.63-9.41-13.58-15.62-19a33.83,33.83,0,0,0-11.23-6.65l.87,1.54q4.68-26.08,7.39-52.49.78-7.59,1.38-15.2c.13-1.61-2.37-1.6-2.5,0Z" transform="translate(-92.81 -16.24)"/><path class="cls-4" d="M1592.33,490.32a131.5,131.5,0,0,1,44.14-13.38q6.51-.76,13.07-.88a1.25,1.25,0,0,0,0-2.5,134.18,134.18,0,0,0-46.21,9.11c-4.17,1.62-8.26,3.46-12.26,5.49-1.43.73-.17,2.89,1.26,2.16Z" transform="translate(-92.81 -16.24)"/><path class="cls-4" d="M1596.59,501.88a1.25,1.25,0,0,0,0-2.5,1.25,1.25,0,0,0,0,2.5Z" transform="translate(-92.81 -16.24)"/><path class="cls-4" d="M1596.82,501.61a226.52,226.52,0,0,1,27.09-8.32q6.88-1.65,13.88-2.86,3.49-.6,7-1.1,1.71-.24,3.42-.45c.45-.06,2.73-.63,3-.12a1.25,1.25,0,0,0,2.16-1.26c-.77-1.3-2.16-1.47-3.55-1.32-2,.22-4,.49-6,.77q-5.85.84-11.64,2a224.22,224.22,0,0,0-23.13,5.83q-6.55,2-13,4.45c-1.49.56-.85,3,.66,2.41Z" transform="translate(-92.81 -16.24)"/><path class="cls-4" d="M1610.74,556.31c6.2-4.13,13.37-6.25,20.59-7.83,7.92-1.72,15.93-3.12,23.89-4.65a96.29,96.29,0,0,1,14.14-2l-.88-2.14-1.37,1.21c-1.21,1.07.56,2.84,1.77,1.77l1.36-1.21a1.26,1.26,0,0,0-.88-2.13c-8.52.36-17,2.52-25.34,4.13-7.75,1.48-15.64,2.72-23.13,5.24a48.94,48.94,0,0,0-11.42,5.46c-1.33.89-.08,3.06,1.27,2.16Z" transform="translate(-92.81 -16.24)"/><path class="cls-4" d="M1614.74,568.31q14.37-4.78,29.1-8.35,7.25-1.76,14.56-3.19,3.78-.74,7.56-1.4c2-.34,4.9-1.39,6.73-.24,1.36.86,2.61-1.3,1.26-2.16a6.55,6.55,0,0,0-4.58-.68c-1.92.26-3.82.62-5.73,1q-6.15,1.11-12.26,2.42-12,2.6-23.77,6c-4.54,1.31-9,2.73-13.53,4.22-1.52.51-.87,2.92.66,2.41Z" transform="translate(-92.81 -16.24)"/><path class="cls-4" d="M1590.7,176.41l.46-.42c.11-.1.79-.65.29-.26s.09-.06.16-.1l.51-.35a23.88,23.88,0,0,1,2.51-1.43c.43-.22.88-.41,1.32-.62-.79.38,0,0,.35-.13.91-.36,1.83-.69,2.75-1,4-1.36,8-2.67,11.94-3.94a170.44,170.44,0,0,1,24.75-6.23l1.86-.28-.16,0,1.16-.14c1.17-.14,2.34-.25,3.51-.35q3.65-.28,7.29-.26a5,5,0,0,0,0-10c-18.13-.1-35.64,5.62-52.61,11.41-4.78,1.63-9.4,3.55-13.16,7a5,5,0,0,0,0,7.07,5.11,5.11,0,0,0,7.07,0Z" transform="translate(-92.81 -16.24)"/><path class="cls-4" d="M1593.65,196a5,5,0,1,0-5-5,5.05,5.05,0,0,0,5,5Z" transform="translate(-92.81 -16.24)"/><path class="cls-4" d="M1596.05,195c1.94-.91,3.9-1.8,5.87-2.63-.76.32.26-.1.51-.2l1.49-.61,3-1.16q5.92-2.22,12-4t12.28-3q3-.62,6.1-1.13c1-.16,2-.32,3-.46l1.6-.23c-.08,0-.78.1-.19,0l1.14-.14c4.72-.58,9.46-.93,14.21-1.09a5,5,0,0,0,0-10,166.15,166.15,0,0,0-51.67,10q-7.29,2.68-14.34,6c-2.37,1.11-3.17,4.71-1.79,6.84a5.13,5.13,0,0,0,6.84,1.79Z" transform="translate(-92.81 -16.24)"/><path class="cls-4" d="M1694.09,547.33c.29-.28.58-.56.89-.82s1-.68.25-.22c.79-.52,1.56-1,2.39-1.51s1.45-.73,2.19-1.06c-.9.4.16-.05.51-.19l1.36-.48a102.82,102.82,0,0,1,11.24-2.87q6-1.29,12.1-2.15l.72-.1c-.21,0-.91.12.11,0l1.43-.18,3.12-.35q3.12-.32,6.24-.53c4.74-.32,9.48-.44,14.22-.39a5,5,0,0,0,0-10,180.47,180.47,0,0,0-26,1.58c-8.54,1.14-17.26,2.56-25.48,5.23a31.17,31.17,0,0,0-12.39,7,5,5,0,1,0,7.07,7.07Z" transform="translate(-92.81 -16.24)"/><path class="cls-4" d="M1702,567.78a33.35,33.35,0,0,1,4.67-2.61c.51-.25-.14.05-.21.08l.6-.24,1.21-.45c.88-.32,1.77-.61,2.67-.88,3.7-1.14,7.45-2.12,11.17-3.15,4-1.1,7.91-2.23,11.88-3.28,1.94-.51,3.89-1,5.85-1.42.94-.21,1.88-.4,2.83-.57l1.41-.24.71-.11c.09,0,1-.14.52-.08s.23,0,.28,0l.94-.1c.55-.06,1.1-.1,1.65-.14,1.1-.07,2.21-.1,3.31-.09s2.2.06,3.29.17l.71.07c-.53-.05-.34-.05.07,0,.63.1,1.25.22,1.87.34,2.55.54,5.52-.74,6.15-3.49.57-2.5-.76-5.58-3.49-6.15-8.85-1.85-17.76-.59-26.43,1.57-8.08,2-16.14,4.31-24.13,6.65a42.93,42.93,0,0,0-12.58,5.49c-2.14,1.49-3.34,4.45-1.79,6.84,1.37,2.13,4.54,3.39,6.84,1.79Z" transform="translate(-92.81 -16.24)"/><path class="cls-4" d="M1704.87,497.17a159,159,0,0,0,5.66-22.63h-9.64l7,23.42q1.72,5.75,3.43,11.47c.55,1.83,1,3.7,1.66,5.5a5.56,5.56,0,0,0,4.48,3.91,5.22,5.22,0,0,0,5.3-2.65,5,5,0,0,0,0-5.05l-.1-.15a5,5,0,1,0-8.63,5,1.4,1.4,0,0,0,.1.16v-5.05l-.11.2,3-2.3-.21.07,3.85.5-.2-.12,1.8,1.79c.29.84.37,1,.21.51l-.21-.71-.36-1.2c-.26-.87-.52-1.75-.79-2.63-.47-1.59-.95-3.18-1.42-4.78q-1.55-5.13-3.07-10.27-3-10.17-6.07-20.32a5.09,5.09,0,0,0-4.82-3.67c-2,.09-4.44,1.47-4.82,3.67a159,159,0,0,1-5.66,22.63,5,5,0,0,0,3.49,6.15,5.11,5.11,0,0,0,6.15-3.49Z" transform="translate(-92.81 -16.24)"/><path class="cls-8" d="M2428.32,1260.13l-86.71-.8,2.49-271.68s14.79-9.33,43.44-9.07c31.71.3,43.27,9.87,43.27,9.87Z" transform="translate(-92.81 -16.24)"/><path class="cls-9" d="M2387.54,978.58c-4.21,0-8.1.14-11.71.45,22.17,2.23,30.59,9.2,30.59,9.2l-2.49,271.67,24.39.23,2.49-271.68S2419.25,978.88,2387.54,978.58Z" transform="translate(-92.81 -16.24)"/><path class="cls-15" d="M2430.56,1015.46c-14.5-5.93-31-6.43-46.75-5.32-12.74.9-25.57,2.78-37.61,7.21l-2.38.86-.13,13.86a74.69,74.69,0,0,1,10.24-4.63,117,117,0,0,1,67.48-4.12,49,49,0,0,1,9.05,3Z" transform="translate(-92.81 -16.24)"/><path class="cls-15" d="M2430.35,1038.35c-14.5-5.93-31-6.43-46.75-5.32-12.74.9-25.57,2.78-37.61,7.21l-2.38.87-.13,13.86a73.56,73.56,0,0,1,10.24-4.64,117.09,117.09,0,0,1,67.48-4.12,49,49,0,0,1,9.05,3Z" transform="translate(-92.81 -16.24)"/><path class="cls-17" d="M2355.74,996.86c-1.13,4.19,0,8.61.91,12.86,7.37,34.65-1.2,70.74,2.07,106,.16,1.74,1,4,2.72,3.78,1.45-.2,1.93-2,2-3.48,3.2-37.11-3.61-75.17,5.16-111.37.93-3.84,2.68-11.8-1.77-14.33S2356.82,992.81,2355.74,996.86Z" transform="translate(-92.81 -16.24)"/><path class="cls-3" d="M2683.4,1270.91H2556.35V783.86s21.55-17,63.53-17c46.47,0,63.52,17,63.52,17Z" transform="translate(-92.81 -16.24)"/><path class="cls-4" d="M2619.44,766.89a147.45,147.45,0,0,0-15.69.83c33.66,3.4,46.49,16.14,46.49,16.14v487.05H2683V783.86S2665.91,766.89,2619.44,766.89Z" transform="translate(-92.81 -16.24)"/><path class="cls-5" d="M2666.28,1156.66a60,60,0,0,0-.85-15.37c-20.88-1.09-90.63-.26-90.63-.26s-1.94,2.19,0,17.36C2583.39,1152.34,2666.65,1151.57,2666.28,1156.66Z" transform="translate(-92.81 -16.24)"/><path class="cls-5" d="M2667.75,1180.62a60.45,60.45,0,0,0-.84-15.37c-20.89-1.09-90.64-.26-90.64-.26s-1.94,2.19,0,17.36C2584.87,1176.3,2668.12,1175.53,2667.75,1180.62Z" transform="translate(-92.81 -16.24)"/><path class="cls-5" d="M2581.16,1256.05c26.88-3.37,54.88-6.64,80.49,2.19q0-31.29,0-62.59a4.07,4.07,0,0,0-.33-2,3.81,3.81,0,0,0-1.75-1.43c-7.42-3.79-16.12-3.93-24.45-3.85q-14.37.13-28.73.85c-8.46.42-19.39-.46-27.33,2.23C2579.75,1196.92,2583.24,1255.79,2581.16,1256.05Z" transform="translate(-92.81 -16.24)"/><path class="cls-6" d="M2573.05,791.13c-4.24,10.38-2.11,22.11-.58,33.22,6.2,45.11,1.31,91,5.21,136.4.36,4.23,2.05,9.67,6.3,9.68,4.58,0,6-6.15,6-10.73q-.23-65.66,4.41-131.21c.57-8.15,1.69-17.25,8.07-22.34,5.62-4.5,15.15-6,16.13-13.13,1.11-8.15-12.69-14.84-19.45-15.91C2588.66,775.46,2577.08,781.23,2573.05,791.13Z" transform="translate(-92.81 -16.24)"/><path class="cls-6" d="M2578.91,989.39c-3.62,6.72-2,14.93-.59,22.44a219.79,219.79,0,0,1,2.87,56.22c-.24,3.12-.54,6.31.35,9.31s3.28,5.77,6.39,6.09,6.19-2.09,7.57-5,1.47-6.26,1.55-9.49q.67-30,.08-59.93c-.09-4.51-.22-9.09-1.59-13.39C2593.34,988.77,2584.25,979.5,2578.91,989.39Z" transform="translate(-92.81 -16.24)"/><path class="cls-20" d="M2785,1265.67l-101.56-.77,2.87-378.74s17.32-13.06,50.88-12.81c37.15.28,50.68,13.58,50.68,13.58Z" transform="translate(-92.81 -16.24)"/><path class="cls-21" d="M2736.8,873.35a121,121,0,0,0-12.55.55c26.89,2.85,37.07,12.83,37.07,12.83l-2.87,378.74,26.16.2,2.87-378.74S2773.94,873.63,2736.8,873.35Z" transform="translate(-92.81 -16.24)"/><path class="cls-6" d="M2699.58,891.92c-3.45,8.05-1.82,17.18-.66,25.83,4.69,35.11.51,70.8,3.36,106.1.26,3.29,1.58,7.53,5,7.56,3.67,0,4.83-4.74,4.85-8.3q.21-51.06,4.3-102c.51-6.33,1.45-13.4,6.58-17.33,4.52-3.46,12.15-4.57,13-10.1.94-6.34-10.06-11.62-15.45-12.49C2712.15,879.83,2702.86,884.25,2699.58,891.92Z" transform="translate(-92.81 -16.24)"/><path class="cls-6" d="M2703.1,1046.12c-2.94,5.21-1.66,11.6-.61,17.46a166.47,166.47,0,0,1,2,43.73,19.35,19.35,0,0,0,.22,7.24c.69,2.33,2.58,4.51,5.07,4.78s5-1.59,6.08-3.86,1.21-4.85,1.29-7.36q.72-23.29.42-46.61a35.77,35.77,0,0,0-1.19-10.42C2714.63,1045.74,2707.42,1038.47,2703.1,1046.12Z" transform="translate(-92.81 -16.24)"/><path class="cls-14" d="M2555.33,1261.54h-127V863.45s21.54-13.87,63.52-13.87c46.47,0,63.53,13.87,63.53,13.87Z" transform="translate(-92.81 -16.24)"/><path class="cls-2" d="M2491.8,849.58c-6.16,0-11.87.31-17.15.82,32.51,3,44.94,13.05,44.94,13.05v398.09h35.74V863.45S2538.27,849.58,2491.8,849.58Z" transform="translate(-92.81 -16.24)"/><path class="cls-15" d="M2555.33,903c-21.33-8.49-45.47-9-68.57-7.16-18.66,1.49-37.42,4.42-55,11.06-1.2.45-2.36.87-3.48,1.3v20.31a108.21,108.21,0,0,1,14.94-6.93,171.53,171.53,0,0,1,98.8-6.94,72.4,72.4,0,0,1,13.31,4.27Z" transform="translate(-92.81 -16.24)"/><path class="cls-16" d="M2555.33,918.89V903c-11.32-4.51-23.42-6.75-35.74-7.61v15.7a166.94,166.94,0,0,1,22.43,3.55A70.91,70.91,0,0,1,2555.33,918.89Z" transform="translate(-92.81 -16.24)"/><path class="cls-16" d="M2555.19,952.72V936.81c-11.32-4.51-23.42-6.75-35.74-7.6V944.9a168.55,168.55,0,0,1,22.43,3.55A71.88,71.88,0,0,1,2555.19,952.72Z" transform="translate(-92.81 -16.24)"/><path class="cls-15" d="M2555.33,936.57c-21.33-8.49-45.47-9-68.57-7.16-18.66,1.49-37.42,4.42-55,11.06l-3.48,1.3v20.31a107,107,0,0,1,14.94-6.92,171.45,171.45,0,0,1,98.8-6.95,72.4,72.4,0,0,1,13.31,4.27Z" transform="translate(-92.81 -16.24)"/><path class="cls-16" d="M2555.19,952.72V936.81c-11.32-4.51-23.42-6.75-35.74-7.6V944.9a168.55,168.55,0,0,1,22.43,3.55A71.88,71.88,0,0,1,2555.19,952.72Z" transform="translate(-92.81 -16.24)"/><path class="cls-15" d="M2537.72,1239.9h-86V1159s25.34-4.51,43-4.59c20.29-.09,43,4.59,43,4.59Z" transform="translate(-92.81 -16.24)"/><path class="cls-16" d="M2537.72,1159.33s-8.11-1.67-18.95-3c.07.43.15.86.21,1.27,1.57,11-.14,22.26-3.88,32.64a88.21,88.21,0,0,1-8.31,17,70.32,70.32,0,0,1-11,13.8c-11.74,11.12-27.87,16.17-44.14,17.6v1.52h86Z" transform="translate(-92.81 -16.24)"/><path class="cls-17" d="M2445.45,876.79c-1.59,6.16.13,12.61,1.51,18.82,11.26,50.67-.81,103.67,4.45,155.31.26,2.55,1.51,5.88,4.05,5.51,2.12-.31,2.79-3,2.95-5.14,4.19-54.41-6.3-110.08,6.07-163.24,1.31-5.63,3.76-17.31-2.79-21S2447,870.84,2445.45,876.79Z" transform="translate(-92.81 -16.24)"/><path class="cls-17" d="M2452.58,1071.12q.78,18.15,1.57,36.28a17.66,17.66,0,0,0,1.23,6.9c1,2.13,3.16,3.9,5.51,3.72a3,3,0,0,0,1.94-.84,4.4,4.4,0,0,0,.72-3.2q-.69-17.06-1.37-34.1c-.14-3.67,1.18-12.25-2.37-14.7C2455.36,1062.12,2452.41,1067.19,2452.58,1071.12Z" transform="translate(-92.81 -16.24)"/><path class="cls-7" d="M1922.12,868.84,1933,1020.52s152.56,285.57,156,284.74,114.41-31.5,114.41-31.5Z" transform="translate(-92.81 -16.24)"/><path class="cls-8" d="M2235.58,1251.63l-75.95,42.42L1922.12,868.84s4.61-22,29.71-36c27.78-15.52,46.25-6.4,46.25-6.4Z" transform="translate(-92.81 -16.24)"/><path class="cls-9" d="M1951.56,833a69.47,69.47,0,0,0-9,6c21.78-8.27,35.66-1.43,35.66-1.43l237.5,425.21,24-3L1997.82,826.56S1979.34,817.44,1951.56,833Z" transform="translate(-92.81 -16.24)"/><path class="cls-4" d="M2111,1175.76a131.5,131.5,0,0,1,39.63-23.4c4.13-1.54,8.34-2.86,12.6-4a1.26,1.26,0,0,0-.67-2.42,134.45,134.45,0,0,0-42.82,19.85q-5.45,3.84-10.51,8.18c-1.22,1,.55,2.81,1.77,1.77Z" transform="translate(-92.81 -16.24)"/><path class="cls-4" d="M2118.06,1185.68a222.36,222.36,0,0,1,24.32-14.48q6.24-3.21,12.69-6,3.29-1.42,6.6-2.75c1.13-.45,2.25-.88,3.39-1.31.44-.17,2.4-1.21,2.82-.78,1.12,1.15,2.89-.62,1.77-1.77s-2.63-.84-4-.34c-1.91.7-3.81,1.45-5.7,2.21q-5.4,2.18-10.7,4.62a227.91,227.91,0,0,0-21,11.12q-5.84,3.49-11.45,7.34c-1.32.9-.07,3.07,1.27,2.16Z" transform="translate(-92.81 -16.24)"/><path class="cls-4" d="M2144.51,1235.53c5-5.43,11.4-9.17,18-12.39,7.43-3.63,15-6.93,22.54-10.37a95.74,95.74,0,0,1,13-5.2l-1.41-1.83-1,1.5c-.92,1.32,1.25,2.57,2.16,1.26l1-1.5a1.26,1.26,0,0,0-1.41-1.84c-8.19,2.37-15.91,6.49-23.64,10-7.15,3.27-14.5,6.32-21.16,10.53a48,48,0,0,0-9.85,8c-1.09,1.18.67,3,1.76,1.77Z" transform="translate(-92.81 -16.24)"/><path class="cls-4" d="M2151.25,1246.24q12.7-8,26-14.87,6.67-3.45,13.48-6.59,3.41-1.58,6.84-3.08c1.17-.51,2.34-1,3.52-1.52a4.65,4.65,0,0,1,3.3-.44c1.53.51,2.19-1.91.67-2.41a7.05,7.05,0,0,0-5,.6c-1.83.76-3.65,1.56-5.46,2.37-3.71,1.64-7.4,3.36-11.05,5.13q-11.07,5.37-21.74,11.52-6,3.45-11.85,7.13c-1.36.85-.1,3,1.26,2.16Z" transform="translate(-92.81 -16.24)"/><polygon class="cls-11" points="1727.58 820.96 1679.16 902.65 1778.88 1273.13 1882.7 1273.13 1785.47 914.51 1727.58 820.96"/><path class="cls-10" d="M2034.35,1283.3l-83.84,23.24L1820.39,837.2s9.68-20.3,37.39-28c30.66-8.5,46.45,4.73,46.45,4.73Z" transform="translate(-92.81 -16.24)"/><path class="cls-11" d="M1857.49,809.3a70,70,0,0,0-10.13,3.67c23.12-2.88,35,7,35,7l130.11,469.35,21.6-6L1903.94,814S1888.15,800.8,1857.49,809.3Z" transform="translate(-92.81 -16.24)"/><path class="cls-4" d="M1837.13,847l.46-.42c.11-.1.79-.65.29-.26s.09-.06.16-.1l.51-.35a23.88,23.88,0,0,1,2.51-1.43c.43-.22.88-.41,1.32-.62-.79.38,0,0,.35-.13.91-.36,1.83-.69,2.75-1,4-1.36,8-2.67,11.94-3.94a170.44,170.44,0,0,1,24.75-6.23l1.86-.28-.16,0,1.16-.14c1.17-.14,2.34-.26,3.51-.35q3.64-.29,7.29-.26a5,5,0,0,0,0-10c-18.13-.1-35.64,5.62-52.61,11.41-4.78,1.63-9.4,3.55-13.16,7a5,5,0,0,0,0,7.07,5.11,5.11,0,0,0,7.07,0Z" transform="translate(-92.81 -16.24)"/><path class="cls-4" d="M1840.08,866.58a5,5,0,1,0-5-5,5,5,0,0,0,5,5Z" transform="translate(-92.81 -16.24)"/><path class="cls-4" d="M1842.48,865.62c1.94-.91,3.9-1.8,5.87-2.63-.76.32.26-.1.51-.2l1.49-.61,3-1.16q5.93-2.22,12-4t12.28-3c2-.42,4.06-.79,6.1-1.13,1-.16,2-.32,3-.46l1.59-.23c-.08,0-.78.1-.19,0l1.14-.14q7.08-.87,14.21-1.09a5,5,0,0,0,0-10,166.15,166.15,0,0,0-51.67,10q-7.29,2.68-14.34,6c-2.37,1.11-3.17,4.71-1.79,6.84a5.13,5.13,0,0,0,6.84,1.79Z" transform="translate(-92.81 -16.24)"/><path class="cls-4" d="M1940.52,1217.91c.29-.28.58-.56.89-.83s1-.68.25-.22c.8-.51,1.56-1,2.39-1.5s1.45-.73,2.19-1.06c-.9.4.16-.06.51-.19l1.36-.48a102.82,102.82,0,0,1,11.24-2.87q6-1.29,12.11-2.15l.71-.1c-.21,0-.9.12.11,0l1.43-.18,3.12-.35q3.12-.32,6.24-.53c4.74-.32,9.48-.44,14.22-.39a5,5,0,0,0,0-10,180.47,180.47,0,0,0-26,1.58c-8.54,1.14-17.26,2.56-25.48,5.23a31.17,31.17,0,0,0-12.39,7,5,5,0,0,0,7.07,7.07Z" transform="translate(-92.81 -16.24)"/><path class="cls-4" d="M1948.4,1238.36a33.35,33.35,0,0,1,4.67-2.61c.51-.25-.14,0-.21.08l.6-.24,1.21-.45c.88-.32,1.78-.61,2.67-.88,3.7-1.14,7.45-2.12,11.17-3.15,4-1.1,7.91-2.23,11.88-3.28,1.94-.51,3.89-1,5.85-1.42.94-.21,1.88-.4,2.83-.57l1.41-.24.71-.11c.09,0,1-.14.52-.08s.23,0,.28,0l.94-.1,1.65-.13c1.1-.07,2.21-.1,3.31-.09s2.2.06,3.29.17l.7.07c-.52,0-.33,0,.08,0,.63.1,1.25.21,1.87.34,2.55.54,5.52-.74,6.15-3.49.57-2.5-.75-5.58-3.49-6.15-8.85-1.85-17.75-.6-26.43,1.57-8.08,2-16.14,4.31-24.13,6.65a42.93,42.93,0,0,0-12.58,5.49c-2.14,1.48-3.34,4.45-1.79,6.84,1.37,2.13,4.54,3.39,6.84,1.79Z" transform="translate(-92.81 -16.24)"/><path class="cls-4" d="M1951.3,1167.75a159,159,0,0,0,5.66-22.63h-9.64l7,23.42q1.73,5.73,3.43,11.47c.55,1.83,1,3.7,1.66,5.5a5.56,5.56,0,0,0,4.48,3.91,5.22,5.22,0,0,0,5.3-2.65,5,5,0,0,0,0-5l-.1-.16a5,5,0,1,0-8.63,5c0,.05.07.1.1.16v-5l-.11.2,3-2.3-.21.07,3.85.5-.2-.12,1.8,1.79c.29.84.37,1,.21.51l-.21-.71-.36-1.2-.78-2.63q-.72-2.38-1.43-4.78-1.55-5.13-3.07-10.28-3-10.15-6.07-20.31a5.09,5.09,0,0,0-4.82-3.67c-2.05.09-4.44,1.47-4.82,3.67a159,159,0,0,1-5.66,22.63,5,5,0,0,0,3.49,6.15,5.11,5.11,0,0,0,6.15-3.49Z" transform="translate(-92.81 -16.24)"/><path class="cls-3" d="M1694.1,1259.67V1132.62h-487s-17,21.55-17,63.53c0,46.47,17,63.52,17,63.52Z" transform="translate(-92.81 -16.24)"/><path class="cls-4" d="M1190.08,1195.71a147.45,147.45,0,0,1,.83-15.69c3.4,33.66,16.14,46.49,16.14,46.49H1694.1v32.72h-487S1190.08,1242.18,1190.08,1195.71Z" transform="translate(-92.81 -16.24)"/><path class="cls-5" d="M1579.85,1242.55a60.45,60.45,0,0,1-15.37-.84c-1.09-20.89-.26-90.64-.26-90.64s2.2-1.94,17.36,0C1575.53,1159.67,1574.76,1242.93,1579.85,1242.55Z" transform="translate(-92.81 -16.24)"/><path class="cls-5" d="M1603.81,1244a60.92,60.92,0,0,1-15.37-.85c-1.09-20.89-.26-90.64-.26-90.64s2.2-1.94,17.36,0C1599.49,1161.14,1598.72,1244.4,1603.81,1244Z" transform="translate(-92.81 -16.24)"/><path class="cls-5" d="M1679.25,1157.43c-3.38,26.88-6.64,54.88,2.18,80.49l-62.58,0a4.11,4.11,0,0,1-2-.33,3.84,3.84,0,0,1-1.43-1.74c-3.79-7.43-3.93-16.12-3.85-24.46q.15-14.37.85-28.73c.42-8.46-.45-19.39,2.23-27.33C1620.11,1156,1679,1159.51,1679.25,1157.43Z" transform="translate(-92.81 -16.24)"/><path class="cls-6" d="M1214.32,1149.32c10.39-4.24,22.11-2.11,33.22-.58,45.11,6.2,91,1.31,136.4,5.21,4.23.36,9.68,2,9.68,6.3,0,4.58-6.15,6-10.73,6q-65.66-.23-131.21,4.41c-8.14.58-17.24,1.69-22.34,8.07-4.5,5.62-6,15.16-13.13,16.13-8.15,1.11-14.84-12.69-15.91-19.45C1198.65,1164.93,1204.43,1153.35,1214.32,1149.32Z" transform="translate(-92.81 -16.24)"/><path class="cls-6" d="M1412.58,1155.19c6.72-3.63,14.93-2,22.45-.6a220.22,220.22,0,0,0,56.22,2.88c3.11-.24,6.31-.54,9.3.34s5.78,3.28,6.09,6.39-2.09,6.2-5,7.57-6.26,1.48-9.49,1.55q-30,.67-59.93.08c-4.51-.09-9.09-.21-13.39-1.59C1412,1169.61,1402.69,1160.52,1412.58,1155.19Z" transform="translate(-92.81 -16.24)"/><path class="cls-20" d="M1693.88,1133.25V1031.69H1315.13s-13.19,17.22-13.19,50.78c0,37.14,13.19,50.78,13.19,50.78Z" transform="translate(-92.81 -16.24)"/><path class="cls-21" d="M1301.94,1082.11a122.43,122.43,0,0,1,.64-12.54c2.65,26.91,12.55,37.16,12.55,37.16h378.75v26.16H1315.13S1301.94,1119.26,1301.94,1082.11Z" transform="translate(-92.81 -16.24)"/><path class="cls-6" d="M1320.79,1045c8.07-3.39,17.19-1.68,25.83-.46,35.08,5,70.8,1,106.07,4.16,3.29.29,7.53,1.64,7.53,5,0,3.66-4.78,4.79-8.34,4.78q-51.06-.18-102,3.53c-6.33.46-13.41,1.35-17.37,6.44-3.5,4.5-4.67,12.12-10.21,12.9-6.34.89-11.54-10.15-12.37-15.55C1308.6,1057.51,1313.09,1048.26,1320.79,1045Z" transform="translate(-92.81 -16.24)"/><path class="cls-6" d="M1475,1049.72c5.23-2.9,11.61-1.57,17.46-.48a166,166,0,0,0,43.72,2.3,19.5,19.5,0,0,1,7.23.28c2.33.71,4.49,2.62,4.74,5.11s-1.63,5-3.9,6-4.87,1.18-7.38,1.24q-23.3.54-46.6.06a35.34,35.34,0,0,1-10.41-1.27C1474.49,1061.25,1467.27,1054,1475,1049.72Z" transform="translate(-92.81 -16.24)"/><path class="cls-10" d="M1693.88,1032.31V930.75h-453s-15.78,17.22-15.78,50.78c0,37.14,15.78,50.78,15.78,50.78Z" transform="translate(-92.81 -16.24)"/><path class="cls-11" d="M1225.08,981.17a100.28,100.28,0,0,1,.77-12.54c3.16,26.91,15,37.17,15,37.17h453V1032h-453S1225.08,1018.32,1225.08,981.17Z" transform="translate(-92.81 -16.24)"/><rect class="cls-12" x="1026.08" y="1243.44" width="1719.8" height="89.03"/><path class="cls-14" d="M1820.39,1261.54H1693.34V863.45s21.55-13.87,63.53-13.87c46.47,0,63.52,13.87,63.52,13.87Z" transform="translate(-92.81 -16.24)"/><path class="cls-2" d="M1756.87,849.58c-6.17,0-11.87.31-17.15.82,32.5,3,44.94,13.05,44.94,13.05v398.09h35.73V863.45S1803.34,849.58,1756.87,849.58Z" transform="translate(-92.81 -16.24)"/><path class="cls-15" d="M1820.39,903c-21.33-8.49-45.47-9-68.56-7.16-18.66,1.49-37.42,4.42-55,11.06l-3.48,1.3v20.31a108.33,108.33,0,0,1,15-6.93,171.52,171.52,0,0,1,98.8-6.94,72.3,72.3,0,0,1,13.3,4.27Z" transform="translate(-92.81 -16.24)"/><path class="cls-16" d="M1820.39,918.89V903c-11.31-4.51-23.42-6.75-35.73-7.61v15.7a166.94,166.94,0,0,1,22.43,3.55A70.81,70.81,0,0,1,1820.39,918.89Z" transform="translate(-92.81 -16.24)"/><path class="cls-16" d="M1820.25,952.72V936.81c-11.31-4.51-23.42-6.75-35.74-7.6V944.9a168.44,168.44,0,0,1,22.44,3.55A71.79,71.79,0,0,1,1820.25,952.72Z" transform="translate(-92.81 -16.24)"/><path class="cls-15" d="M1820.39,936.57c-21.33-8.49-45.47-9-68.56-7.16-18.66,1.49-37.42,4.42-55,11.06l-3.48,1.3v20.31a107.11,107.11,0,0,1,15-6.92,171.44,171.44,0,0,1,98.8-6.95,72.3,72.3,0,0,1,13.3,4.27Z" transform="translate(-92.81 -16.24)"/><path class="cls-16" d="M1820.25,952.72V936.81c-11.31-4.51-23.42-6.75-35.74-7.6V944.9a168.44,168.44,0,0,1,22.44,3.55A71.79,71.79,0,0,1,1820.25,952.72Z" transform="translate(-92.81 -16.24)"/><path class="cls-15" d="M1802.79,1239.9h-86V1159s25.33-4.51,43-4.59c20.28-.09,43,4.59,43,4.59Z" transform="translate(-92.81 -16.24)"/><path class="cls-16" d="M1802.79,1159.33s-8.11-1.67-19-3c.08.43.15.86.21,1.27,1.58,11-.14,22.26-3.87,32.64a88.21,88.21,0,0,1-8.31,17,70.37,70.37,0,0,1-11,13.8c-11.73,11.12-27.86,16.17-44.13,17.6v1.52h86Z" transform="translate(-92.81 -16.24)"/><path class="cls-17" d="M1710.52,876.79c-1.6,6.16.13,12.61,1.51,18.82,11.26,50.67-.82,103.67,4.45,155.31.26,2.55,1.51,5.88,4,5.51,2.12-.31,2.8-3,3-5.14,4.19-54.41-6.31-110.08,6.06-163.24,1.31-5.63,3.77-17.31-2.78-21S1712.05,870.84,1710.52,876.79Z" transform="translate(-92.81 -16.24)"/><path class="cls-17" d="M1717.65,1071.12l1.56,36.28a17.86,17.86,0,0,0,1.24,6.9c1,2.13,3.16,3.9,5.51,3.72a3,3,0,0,0,1.94-.84,4.35,4.35,0,0,0,.71-3.2q-.67-17.06-1.36-34.1c-.15-3.67,1.18-12.25-2.37-14.7C1720.42,1062.12,1717.48,1067.19,1717.65,1071.12Z" transform="translate(-92.81 -16.24)"/><path class="cls-4" d="M1587.5,947.09a534.3,534.3,0,0,0-3,57.68c0,5.18.21,10.57,2.1,15.46.94,2.43,3.4,4.38,6.15,3.49,2.37-.77,4.5-3.54,3.49-6.15a25.76,25.76,0,0,1-.94-3c-.13-.5-.23-1-.33-1.52,0-.22-.07-.44-.11-.66-.24-1.4,0,.59,0-.22-.17-2.18-.3-4.34-.32-6.52,0-4.65,0-9.3.14-13.95q.33-14.21,1.41-28.39.63-8.13,1.49-16.24c.28-2.61-2.5-5.11-5-5-3,.13-4.7,2.2-5,5Z" transform="translate(-92.81 -16.24)"/><path class="cls-4" d="M1606.38,947.13q-2.55,32-2.46,64.2l0,4.47c0,1.88-.08,3.79.92,5.47a5.55,5.55,0,0,0,7.49,2,5.45,5.45,0,0,0,2-7.46,5,5,0,0,0-8.64,5s.07.11.11.17l-.51-3.85.33-.81,1.8-1.8-.21.12,2.52-.68h-.22l2.52.69-.24-.16,1.79,1.8c.13.19.31,2.64.39,1.19,0-.25,0-.5,0-.75,0-.58,0-1.16,0-1.74,0-1.15,0-2.31,0-3.47,0-2.32,0-4.63,0-7q0-6.95.2-13.89.31-13.89,1.14-27.77c.32-5.28.69-10.57,1.11-15.84a5,5,0,0,0-5-5,5.12,5.12,0,0,0-5,5Z" transform="translate(-92.81 -16.24)"/><path class="cls-4" d="M1667.08,947.74a529.76,529.76,0,0,0,.88,58q.57,8.16,1.39,16.31c.26,2.59,2.11,5.13,5,5,2.49-.11,5.28-2.21,5-5a531.63,531.63,0,0,1-2.67-58q.08-8.19.4-16.37a5,5,0,0,0-5-5,5.11,5.11,0,0,0-5,5Z" transform="translate(-92.81 -16.24)"/><path class="cls-4" d="M1272.6,952.85c-5.63,2.65-6.66,10.09-6.91,15.58-.27,6,1.26,12,5.35,16.46,3.65,4,9,6.17,14.19,7.38a107,107,0,0,0,18.19,2.42c10.55.6,23.86.57,31.08-8.55a21.81,21.81,0,0,0,4.58-15.78,25.08,25.08,0,0,0-7-14.91c-9.79-10.19-24.76-11.09-37.81-8.21a5,5,0,0,0-3.49,6.15,5.11,5.11,0,0,0,6.15,3.49c1.29-.28,2.59-.54,3.9-.74.14,0,1.11-.16.49-.08l.5-.06c.7-.07,1.39-.14,2.09-.19q2-.13,4-.09c.62,0,1.24,0,1.86.08l.93.08c.39,0,1,.11.28,0a32,32,0,0,1,6.94,1.79c1,.36-.13-.08-.15-.07a3.92,3.92,0,0,1,.69.31c.51.24,1,.5,1.51.77.93.51,1.82,1.1,2.7,1.69s0-.06-.11-.1a3.15,3.15,0,0,1,.58.47c.43.36.84.73,1.25,1.12s.7.7,1,1.06c.17.18.33.37.49.56.51.59.43.17,0,0,.3.13.68.94.86,1.21.3.47.59.95.85,1.44.12.22.24.44.34.67s.45.87.13.23,0,.07.09.24.2.57.29.86a13.8,13.8,0,0,1,.38,1.4c.07.29.13.59.19.89s.12,1,0,.23.05.79.06,1c0,.54,0,1.08,0,1.63a5.3,5.3,0,0,1-.12,1.44c.39-1.07.06-.49,0-.08,0,.23-.09.47-.15.7q-.17.7-.39,1.38c-.07.23-.16.45-.23.68-.18.58.43-.89,0,0-.21.43-.42.85-.66,1.27-.15.25-.31.5-.47.75s-.52.8-.13.22,0,0-.17.19l-.49.54c-.39.41-.81.78-1.23,1.15-.8.7.12-.1.12-.09a4.25,4.25,0,0,1-.61.42,16.16,16.16,0,0,1-1.45.85l-.67.34c-.15.07-.89.39-.25.12s-.12,0-.28.1l-.89.31a25.94,25.94,0,0,1-3.15.8c-.5.1-1,.18-1.52.27-.73.12.91-.1.17,0l-1,.11a65.89,65.89,0,0,1-6.88.22q-4.15,0-8.28-.39c-1.38-.11-2.76-.25-4.13-.41l-1-.12c-.83-.09.71.1-.12,0s-1.45-.21-2.17-.33a63.38,63.38,0,0,1-6.69-1.35c-1-.28-2-.6-3-1l-.69-.27c-.66-.26.79.38.17.06s-1-.47-1.48-.74-1.05-.61-1.55-1a4.56,4.56,0,0,1-.59-.42c.85.9.1,0-.1-.13a14,14,0,0,1-1.15-1.16c-.11-.12-.62-.73-.19-.19s-.29-.45-.37-.59a5,5,0,0,1-.86-1.57c.11.82.17.44,0,.1s-.26-.75-.37-1.13a14.82,14.82,0,0,1-.41-1.75c-.06-.32-.35-1.14,0-.06a4.83,4.83,0,0,1-.09-1,27.91,27.91,0,0,1,0-3.88l.06-.81c0-.28.16-1.53,0-.29.06-.58.17-1.15.28-1.71s.21-1,.36-1.55c.06-.22.14-.45.21-.67.3-1.08-.52.87,0-.1.11-.19.22-.4.32-.59.25-.37.25-.38,0,0s-.25.32,0,0c.59-.22-.32-.58-.27.13,0-.12.8-.45.87-.49,2.38-1.12,3.17-4.71,1.8-6.84a5.13,5.13,0,0,0-6.84-1.79Z" transform="translate(-92.81 -16.24)"/><path class="cls-6" d="M1247.62,944.09c9.66-3.39,20.57-1.68,30.91-.46,42,5,84.67,1,126.86,4.16,3.94.29,9,1.64,9,5,0,3.66-5.72,4.79-10,4.78q-61.07-.18-122.05,3.53c-7.57.46-16,1.35-20.78,6.45-4.18,4.49-5.58,12.11-12.21,12.89-7.58.89-13.8-10.15-14.79-15.55C1233.05,956.57,1238.42,947.32,1247.62,944.09Z" transform="translate(-92.81 -16.24)"/><path class="cls-6" d="M1432,948.78c6.26-2.9,13.89-1.57,20.88-.48a236.91,236.91,0,0,0,52.29,2.3c2.9-.19,5.87-.43,8.66.28s5.37,2.62,5.67,5.11-2,5-4.67,6-5.82,1.18-8.82,1.24q-27.87.54-55.74.06a50.23,50.23,0,0,1-12.46-1.27C1431.46,960.31,1422.84,953.05,1432,948.78Z" transform="translate(-92.81 -16.24)"/><path class="cls-4" d="M2015.92,951.73c-11.24,0-25.67-13.41-35.1-32.61-5.32-10.82-8.35-22-8.52-31.48-.18-10,2.85-17.07,8.54-19.86a12.49,12.49,0,0,1,5.56-1.25c11.23,0,25.67,13.41,35.1,32.61,5.32,10.82,8.34,22,8.51,31.48.19,10-2.85,17.07-8.54,19.86A12.42,12.42,0,0,1,2015.92,951.73Zm-29.52-81.2a8.47,8.47,0,0,0-3.79.84c-4.16,2-6.46,7.94-6.31,16.19.16,8.91,3,19.49,8.11,29.8,8.64,17.6,21.89,30.37,31.51,30.37a8.47,8.47,0,0,0,3.79-.84c4.16-2,6.46-7.94,6.31-16.19-.17-8.91-3-19.49-8.11-29.8C2009.26,883.3,1996,870.53,1986.4,870.53Z" transform="translate(-92.81 -16.24)"/><path class="cls-3" d="M2700.07,1146.22c3.1-2.35,6.92-2.66,10.68-2.68,4.69,0,9.38.12,14.07.18,9.48.13,19-.06,28.49.53a43.39,43.39,0,0,1,14.34,2.92,2.59,2.59,0,0,0,3.42-.9,2.51,2.51,0,0,0-.89-3.42c-9-3.81-18.75-3.77-28.35-3.9-10.16-.14-20.32-.38-30.48-.41-4.75,0-9.88.39-13.8,3.36a2.59,2.59,0,0,0-.9,3.42,2.52,2.52,0,0,0,3.42.9Z" transform="translate(-92.81 -16.24)"/><path class="cls-3" d="M2694.68,1248.65c9.48-3.27,19.12-6.68,29.13-7.91s20-.12,29.67,2.21c5.6,1.35,11.1,3.07,16.54,5a2.5,2.5,0,1,0,1.33-4.82c-9.89-3.42-20-6.25-30.43-7.38a83,83,0,0,0-30.91,2.8c-5.63,1.53-11.15,3.43-16.66,5.33a2.56,2.56,0,0,0-1.74,3.08,2.51,2.51,0,0,0,3.07,1.74Z" transform="translate(-92.81 -16.24)"/><path class="cls-3" d="M2716.17,1167.51c.8-2.18,3.56-3,5.67-3.42a19.45,19.45,0,0,1,8.48.47,10.76,10.76,0,0,1,6.53,4.68,10.4,10.4,0,0,1,1.3,7.31c-1,4.7-5,7.45-8.87,9.85-4.14,2.58-8.69,5-11.77,8.85a18.34,18.34,0,0,0-3.66,9.78c-.49,4.45-.73,9-1.09,13.41a2.53,2.53,0,0,0,2.5,2.5l30,.12c3.22,0,3.23-5,0-5l-30-.12,2.5,2.5c.34-4.25.62-8.5,1-12.75a13.11,13.11,0,0,1,2.91-7.68c3.45-3.91,8.51-6,12.8-9.06,4.92-3.46,8.94-8.21,8.83-14.55-.13-7.32-5.26-13.08-12.24-14.81-6.74-1.67-16.95-1-19.73,6.59a2.5,2.5,0,1,0,4.82,1.33Z" transform="translate(-92.81 -16.24)"/><path class="cls-22" d="M1203,1692.76l-52.5-68.25-301.7,5.88s-9.66.17-22.46,23c-9,16-13.88,72.23-13.88,72.23L1203,1692.76Z" transform="translate(-92.81 -16.24)"/><path class="cls-23" d="M1192.81,1638.88l-49.07-74H959.23s-9.83,1-14.27,5.9-18.1,88.73-18.1,88.73h0l265.95-20.59Z" transform="translate(-92.81 -16.24)"/><polygon class="cls-13" points="894.01 1817.64 34.11 1817.64 148.4 1727.77 894.01 1727.77 1639.62 1727.77 1753.91 1817.64 894.01 1817.64"/><path class="cls-2" d="M570.32,1419.32s-10.94,62.12-13.28,65.49,63.07,267.55,63.07,267.55l56.59,50.56Z" transform="translate(-92.81 -16.24)"/><rect class="cls-12" x="34.11" y="1817.65" width="1719.8" height="89.03"/><path class="cls-24" d="M309.31,1808.63s-15.18,11.52-39.72,11.52c-33.73,0-47.28-11.52-47.28-11.52V1218.86s14.76-11.35,43.5-11.35c31.82,0,43.5,11.35,43.5,11.35Z" transform="translate(-92.81 -16.24)"/><path class="cls-25" d="M265.81,1207.51l-1.84,0c14,3.35,19.58,8.78,19.58,8.78v589.77s-15,11.39-39.33,11.52a117.75,117.75,0,0,0,25.37,2.55c24.54,0,39.72-11.52,39.72-11.52V1218.86S297.63,1207.51,265.81,1207.51Z" transform="translate(-92.81 -16.24)"/><path class="cls-14" d="M799.13,1769s-19,25-47.93,30.37c-41.67,7.81-74.5,3.58-74.5,3.58l-106.38-383.6s17-19.13,57.51-30.35c44.77-12.41,64.92-3.61,64.92-3.61Z" transform="translate(-92.81 -16.24)"/><path class="cls-2" d="M627.83,1389c-5.94,1.65-11.36,3.47-16.31,5.37,32.11-5.83,46.79.58,46.79.58l113,397.16L799.13,1769,692.75,1385.36S672.6,1376.56,627.83,1389Z" transform="translate(-92.81 -16.24)"/><path class="cls-15" d="M703.32,1423.5c-22.82-2.48-46.22,3.48-68,11.42-17.59,6.43-34.88,14.26-50.05,25.36l-3,2.18,5.43,19.58a106.25,106.25,0,0,1,12.55-10.67,171.43,171.43,0,0,1,93.35-33.1,72.52,72.52,0,0,1,14,.56Z" transform="translate(-92.81 -16.24)"/><path class="cls-16" d="M707.56,1438.78l-4.25-15.33c-12.11-1.32-24.37-.25-36.47,2.22L671,1440.8a167.87,167.87,0,0,1,22.57-2.58A71.76,71.76,0,0,1,707.56,1438.78Z" transform="translate(-92.81 -16.24)"/><path class="cls-16" d="M716.46,1471.42l-4.25-15.33c-12.1-1.32-24.37-.25-36.47,2.22l4.2,15.13a169.17,169.17,0,0,1,22.56-2.58A71.73,71.73,0,0,1,716.46,1471.42Z" transform="translate(-92.81 -16.24)"/><path class="cls-15" d="M712.29,1455.83c-22.83-2.49-46.23,3.47-68,11.42-17.58,6.42-34.88,14.25-50,25.35-1,.75-2,1.47-3,2.19l5.42,19.57a107.2,107.2,0,0,1,12.55-10.67,171.46,171.46,0,0,1,93.36-33.09,71.76,71.76,0,0,1,14,.56Z" transform="translate(-92.81 -16.24)"/><path class="cls-16" d="M716.46,1471.42l-4.25-15.33c-12.1-1.32-24.37-.25-36.47,2.22l4.2,15.13a169.17,169.17,0,0,1,22.56-2.58A71.73,71.73,0,0,1,716.46,1471.42Z" transform="translate(-92.81 -16.24)"/><path class="cls-15" d="M776.38,1752.82l-82.91,23-21.61-77.91s23.21-11.12,40.23-15.92c19.52-5.51,42.68-7.08,42.68-7.08Z" transform="translate(-92.81 -16.24)"/><path class="cls-16" d="M754.85,1675.18s-8.26.56-19.07,2.18q.29.59.54,1.17c4.46,10.16,5.82,21.48,5,32.49a88.58,88.58,0,0,1-3.45,18.62,70.17,70.17,0,0,1-6.89,16.22c-8.34,13.86-22.54,23-37.83,28.76l.4,1.47,82.91-23Z" transform="translate(-92.81 -16.24)"/><path class="cls-17" d="M590.43,1427.58c.11,6.36,3.5,12.12,6.48,17.73,24.4,45.82,26.93,100.11,45.8,148.47.93,2.39,3,5.26,5.37,4.23,2-.87,1.89-3.64,1.47-5.74-10.5-53.56-35.49-104.39-37.77-158.92-.25-5.78-1-17.7-8.3-19.47S590.32,1421.44,590.43,1427.58Z" transform="translate(-92.81 -16.24)"/><path class="cls-17" d="M649.23,1612.94q5.61,17.26,11.21,34.53a17.67,17.67,0,0,0,3,6.33c1.55,1.78,4.09,2.91,6.3,2.11a3,3,0,0,0,1.65-1.33,4.36,4.36,0,0,0-.17-3.28q-5.21-16.24-10.42-32.49c-1.13-3.5-2.14-12.12-6.22-13.53C649.5,1603.52,648,1609.19,649.23,1612.94Z" transform="translate(-92.81 -16.24)"/><polygon class="cls-7" points="1453.47 1420.15 1457.87 1465.8 1385.9 1753.31 1338.84 1801.37 1441.22 1418.6 1453.47 1420.15"/><path class="cls-8" d="M1431.65,1817.61s-20.51,7.15-38.25,0c-21.94-8.85-28.33-20-28.33-20l114.64-381.22s15.28-9.89,37.28-3.27c24.35,7.32,29.3,23.29,29.3,23.29Z" transform="translate(-92.81 -16.24)"/><path class="cls-9" d="M1517,1413a53.58,53.58,0,0,0-10.92-2.09c16,8,19.62,19.5,19.62,19.5l-117.37,390.31,23.33-3.2,114.64-381.22S1541.34,1420.33,1517,1413Z" transform="translate(-92.81 -16.24)"/><path class="cls-15" d="M1510.34,1435.67c9.91,1.09,20.9,3.75,26.14,12.25a96.51,96.51,0,0,0-3.11,10.93c-.56-5.17-6.33-7.81-11.26-9.47-7.84-2.63-15.75-5.28-23.95-6.34s-16.83-.43-24.25,3.23c1.21-9,2-11.35,11-11.62A182,182,0,0,1,1510.34,1435.67Z" transform="translate(-92.81 -16.24)"/><path class="cls-15" d="M1448.06,1756.27l3.21-11.12a2.72,2.72,0,0,0,0-2,2.62,2.62,0,0,0-1.29-1,134.26,134.26,0,0,0-60.15-12.9,2,2,0,0,0-2.33,1.9c-.92,3.94-2.23,8-2.61,12,3.22.69,8.57-1.34,12.36-1.21a88.2,88.2,0,0,1,17.76,2.58C1418,1745.21,1448.51,1754.72,1448.06,1756.27Z" transform="translate(-92.81 -16.24)"/><path class="cls-15" d="M1455,1734.68l3.21-11.12a2.72,2.72,0,0,0,0-2,2.76,2.76,0,0,0-1.3-1,134.09,134.09,0,0,0-60.15-12.89,2.54,2.54,0,0,0-1.61.4,2.59,2.59,0,0,0-.72,1.49c-.92,3.94-2.23,8-2.61,12,3.22.69,8.58-1.33,12.36-1.21a87.4,87.4,0,0,1,17.76,2.59C1424.87,1723.62,1455.41,1733.13,1455,1734.68Z" transform="translate(-92.81 -16.24)"/><path class="cls-10" d="M1203,1822.76H836.57s-29.47-12.47-29.18-64.18c.29-52,30.23-65.82,30.23-65.82H1203v22H1164.7l.36,87.25h38Z" transform="translate(-92.81 -16.24)"/><path class="cls-18" d="M1196.75,1802H845.16s-21.11-8.37-20.83-43.07c.28-34.89,20.83-44.18,20.83-44.18h351.59s-12.75,16.56-13.74,45.3C1182.29,1780.89,1196.75,1802,1196.75,1802Z" transform="translate(-92.81 -16.24)"/><polygon class="cls-19" points="742.66 1718.86 1094.34 1718.86 1092.56 1725.53 742.66 1718.86"/><polygon class="cls-19" points="738.59 1746.6 1090.27 1746.6 1090.83 1753.31 738.59 1746.6"/><polygon class="cls-19" points="741.88 1760.47 1092.39 1760.47 1094.34 1766.56 741.88 1760.47"/><path class="cls-2" d="M841,1769.36c-.52,11.47-.94,23.46,4.41,33.88-6.35.31-12.43-3-16.41-7.47s-6.17-10-7.86-15.58c-3.86-12.68-5.48-26.29-1.5-38.94,3.48-11.09,14.93-27.07,29.19-27.8C841.11,1730.55,841.85,1750.85,841,1769.36Z" transform="translate(-92.81 -16.24)"/><path class="cls-8" d="M1192.81,1693.5H945.7s-19.88-5.25-19.68-27,20.39-27.65,20.39-27.65h246.4v9.25H1167l.24,36.65h25.6Z" transform="translate(-92.81 -16.24)"/><path class="cls-18" d="M1188.58,1684.78H951.49s-14.24-3.52-14-18.09,14-18.56,14-18.56h237.09a28.08,28.08,0,0,0-9.27,19C1178.83,1675.9,1188.58,1684.78,1188.58,1684.78Z" transform="translate(-92.81 -16.24)"/><polygon class="cls-19" points="852.15 1640.43 1089.29 1640.43 1088.09 1643.23 852.15 1640.43"/><polygon class="cls-19" points="849.4 1652.08 1086.54 1652.08 1086.92 1654.9 849.4 1652.08"/><polygon class="cls-19" points="851.62 1657.91 1087.98 1657.91 1089.29 1660.47 851.62 1657.91"/><path class="cls-2" d="M948.69,1671.06c-.36,4.82-.64,9.86,3,14.23a19,19,0,0,1-11.07-3.13,16.28,16.28,0,0,1-5.3-6.55c-2.6-5.33-3.69-11-1-16.36,2.35-4.66,10.07-11.37,19.68-11.68C948.76,1654.75,949.26,1663.28,948.69,1671.06Z" transform="translate(-92.81 -16.24)"/><path class="cls-8" d="M1115.73,1858.81c-.11-12.37,1.15-24.72.85-37.09-.48-20.6-1.54-42-19-58.64l-47.76-.39c9.47,4.77,13.79,15.92,15.67,26.36,3.28,18.23,1.63,36.93,2,55.45s2.93,37.83,13.47,53.06a91.74,91.74,0,0,1,12.8-33.72,49.39,49.39,0,0,0,29.32,31C1117.41,1883.82,1115.84,1871.18,1115.73,1858.81Z" transform="translate(-92.81 -16.24)"/><path class="cls-26" d="M292.85,1768.22c0,17.19-10.89,31.12-24.32,31.12s-24.31-13.93-24.31-31.12,10.89-31.13,24.31-31.13S292.85,1751,292.85,1768.22Z" transform="translate(-92.81 -16.24)"/><rect class="cls-26" x="160.84" y="1226.28" width="18.96" height="350.1"/><rect class="cls-26" x="160.84" y="1597.97" width="18.96" height="54.5"/><path class="cls-24" d="M396.32,1808.63s-15.19,11.52-39.73,11.52c-33.73,0-47.28-11.52-47.28-11.52V1218.86s14.76-11.35,43.5-11.35c31.83,0,43.51,11.35,43.51,11.35Z" transform="translate(-92.81 -16.24)"/><path class="cls-25" d="M352.81,1207.51l-1.84,0c14,3.35,19.58,8.78,19.58,8.78v589.77s-15,11.39-39.33,11.52a117.82,117.82,0,0,0,25.37,2.55c24.54,0,39.73-11.52,39.73-11.52V1218.86S384.64,1207.51,352.81,1207.51Z" transform="translate(-92.81 -16.24)"/><path class="cls-26" d="M379.85,1768.22c0,17.19-10.89,31.12-24.31,31.12s-24.32-13.93-24.32-31.12,10.89-31.13,24.32-31.13S379.85,1751,379.85,1768.22Z" transform="translate(-92.81 -16.24)"/><rect class="cls-26" x="247.84" y="1226.28" width="14.88" height="350.1"/><rect class="cls-26" x="247.84" y="1597.97" width="14.88" height="54.5"/><path class="cls-24" d="M483.32,1808.63s-15.19,11.52-39.72,11.52c-33.74,0-47.28-11.52-47.28-11.52V1218.86s14.75-11.35,43.5-11.35c31.82,0,43.5,11.35,43.5,11.35Z" transform="translate(-92.81 -16.24)"/><path class="cls-25" d="M439.82,1207.51l-1.85,0c14,3.35,19.58,8.78,19.58,8.78v589.77s-15,11.39-39.33,11.52a117.85,117.85,0,0,0,25.38,2.55c24.53,0,39.72-11.52,39.72-11.52V1218.86S471.64,1207.51,439.82,1207.51Z" transform="translate(-92.81 -16.24)"/><path class="cls-26" d="M466.85,1768.22c0,17.19-10.89,31.12-24.31,31.12s-24.32-13.93-24.32-31.12,10.89-31.13,24.32-31.13S466.85,1751,466.85,1768.22Z" transform="translate(-92.81 -16.24)"/><rect class="cls-26" x="334.85" y="1226.28" width="14.88" height="350.1"/><rect class="cls-26" x="334.85" y="1597.97" width="14.88" height="54.5"/><path class="cls-24" d="M570.32,1808.63s-15.19,11.52-39.72,11.52c-33.74,0-47.28-11.52-47.28-11.52V1218.86s14.75-11.35,43.5-11.35c31.82,0,43.5,11.35,43.5,11.35Z" transform="translate(-92.81 -16.24)"/><path class="cls-25" d="M526.82,1207.51l-1.84,0c14,3.35,19.57,8.78,19.57,8.78v589.77s-15,11.39-39.33,11.52a117.85,117.85,0,0,0,25.38,2.55c24.53,0,39.72-11.52,39.72-11.52V1218.86S558.64,1207.51,526.82,1207.51Z" transform="translate(-92.81 -16.24)"/><path class="cls-3" d="M1743.32,1806.55s-25,7.12-65.43,7.12c-55.58,0-77.89-7.12-77.89-7.12V1442.37s24.3-7,71.66-7c52.42,0,71.66,7,71.66,7Z" transform="translate(-92.81 -16.24)"/><path class="cls-4" d="M1671.66,1435.36h-3c23,2.07,32.24,5.42,32.24,5.42V1805s-24.75,7-64.78,7.11c11.06.92,24.88,1.58,41.8,1.58,40.42,0,65.43-7.12,65.43-7.12V1442.37S1724.08,1435.36,1671.66,1435.36Z" transform="translate(-92.81 -16.24)"/><path class="cls-10" d="M1600,1804.06s-12.5,5.65-32.71,5.65c-27.79,0-39-5.65-39-5.65V1514.79s12.15-5.57,35.83-5.57c26.21,0,35.83,5.57,35.83,5.57Z" transform="translate(-92.81 -16.24)"/><path class="cls-11" d="M1564.17,1509.22l-1.52,0c11.52,1.64,16.13,4.3,16.13,4.3v289.27s-12.38,5.59-32.39,5.65a161.94,161.94,0,0,0,20.9,1.25c20.21,0,32.71-5.65,32.71-5.65V1514.79S1590.38,1509.22,1564.17,1509.22Z" transform="translate(-92.81 -16.24)"/><path class="cls-26" d="M553.85,1768.22c0,17.19-10.88,31.12-24.31,31.12s-24.32-13.93-24.32-31.12,10.89-31.13,24.32-31.13S553.85,1751,553.85,1768.22Z" transform="translate(-92.81 -16.24)"/><rect class="cls-26" x="421.85" y="1226.28" width="18.76" height="350.1"/><rect class="cls-26" x="421.85" y="1597.97" width="18.76" height="54.5"/><path class="cls-5" d="M1612.3,1732c16.62,2,33.23,4.27,49.9,5.69,15.36,1.31,31,1.61,46.16-1.31a90.8,90.8,0,0,0,24.48-8.37c2.86-1.47.33-5.79-2.53-4.31-13.29,6.85-28.21,9.47-43,9.88-15.28.43-30.52-1.28-45.67-3.09L1612.3,1727a2.51,2.51,0,0,0-2.5,2.5,2.57,2.57,0,0,0,2.5,2.5Z" transform="translate(-92.81 -16.24)"/><path class="cls-5" d="M1614.26,1754.47a204.34,204.34,0,0,0,90,3.52,199.63,199.63,0,0,0,24.91-6.3c3-1,1.74-5.82-1.33-4.82a199.06,199.06,0,0,1-87.56,7.79,196.24,196.24,0,0,1-24.73-5c-3.11-.83-4.44,4-1.33,4.82Z" transform="translate(-92.81 -16.24)"/><path class="cls-5" d="M1715.58,1490.61c0,11.33-16.63,20.52-37.14,20.52s-37.14-9.19-37.14-20.52,16.63-20.53,37.14-20.53S1715.58,1479.27,1715.58,1490.61Z" transform="translate(-92.81 -16.24)"/><path class="cls-27" d="M1610.64,1465.46c-1.34,9.6,2.15,19.11,4.58,28.5,9.54,36.87,2.89,75.73,3.18,113.83,0,6.4.3,12.87,2,19,.91,3.25,2.89,6.9,6.25,7.08,4.81.25,6.53-6.2,6.63-11q.79-40.86,1.58-81.72c.29-15,.67-30.31,6.43-44.11,3.06-7.31,7.55-14,10.35-21.38s3.72-16.15-.33-23C1641.52,1436.28,1612.85,1449.59,1610.64,1465.46Z" transform="translate(-92.81 -16.24)"/><path class="cls-27" d="M1621.54,1649.42c-1.49,3.07-1.16,6.67-.8,10.06q1.24,11.67,2.48,23.35c.37,3.5,1.15,7.61,4.35,9.09,3.38,1.57,7.48-1.09,9-4.51s1.11-7.32,1-11.05a74.16,74.16,0,0,1,1-14.73c.66-3.84,1.6-7.86.33-11.54C1636.57,1643.39,1624.52,1643.3,1621.54,1649.42Z" transform="translate(-92.81 -16.24)"/><path class="cls-3" d="M1293.46,1633.22l-74-4.5,27.21,169.57s4.25,5.62,20.41,8.74c12.35,2.39,40.31,2.39,52.66,0,16.15-3.12,20.41-8.74,20.41-8.74l27.21-169.57Z" transform="translate(-92.81 -16.24)"/><path class="cls-28" d="M1326.54,1631.21c-.06,2.59-.1,5.17-.21,7.74-.63,15-3.54,29.8-6.6,44.5-5,23.87-10.56,48.14-23.22,69-9.25,15.23-22.91,28.62-39.59,35.4-2.88,1.18-7.34,1.72-11.45,2.69l1.25,7.78s4.25,5.62,20.41,8.74c12.35,2.39,40.31,2.39,52.66,0,16.15-3.12,20.41-8.74,20.41-8.74l27.21-169.57Z" transform="translate(-92.81 -16.24)"/><path class="cls-29" d="M1367.41,1628.72c0,4.23-33.11,7.65-74,7.65s-74-3.42-74-7.65,33.11-7.65,74-7.65S1367.41,1624.49,1367.41,1628.72Z" transform="translate(-92.81 -16.24)"/><path class="cls-27" d="M1236.15,1650.08a13.23,13.23,0,0,0,.33,4.72l14.19,73.77c.58,3,2.72,7,5.56,5.75,2-.86,2.11-3.62,1.88-5.8-2.58-24.38-6.45-48.83-4.88-73.3.17-2.71.37-5.6-1-8C1249.26,1642.11,1237.18,1644.09,1236.15,1650.08Z" transform="translate(-92.81 -16.24)"/><path class="cls-27" d="M1259,1742.65c-1.67-1.34-4.36,0-5.19,2s-.37,4.23.09,6.32l2.4,10.72a6.32,6.32,0,0,0,1.71,3.66c1.46,1.22,3.8.82,5.2-.46a8.47,8.47,0,0,0,2.33-5.09,30.1,30.1,0,0,0-.25-9.23c-.56-3.71-2.28-8.15-6-8.51Z" transform="translate(-92.81 -16.24)"/><polygon class="cls-10" points="1217.74 1620.13 1252.72 1521.45 1276.36 1489.47 1271.17 1526.61 1237.18 1619.13 1217.74 1620.13"/><polygon class="cls-7" points="1189.54 1620.05 1172.96 1506.73 1172.96 1456.37 1193.95 1500.77 1209.51 1620.13 1189.54 1620.05"/><polygon class="cls-2" points="1171.18 1448.45 1172.96 1477.17 1182.03 1475.54 1171.18 1448.45"/><polygon class="cls-2" points="1267.76 1501.1 1282.53 1480.32 1274.36 1503.79 1267.76 1501.1"/><polygon class="cls-30" points="1338.84 1801.28 1435.53 1787.82 1435.53 1749.95 1385.9 1753.31 1338.84 1801.28"/><polygon class="cls-30" points="583.88 1786.68 477.5 1772.71 477.5 1727.77 524.03 1725.78 583.88 1786.68"/></svg>